<?xml version="1.0" encoding="UTF-8" standalone="no"?>
<!-- Created with Inkscape (http://www.inkscape.org/) -->

<svg
   xmlns:dc="http://purl.org/dc/elements/1.1/"
   xmlns:cc="http://creativecommons.org/ns#"
   xmlns:rdf="http://www.w3.org/1999/02/22-rdf-syntax-ns#"
   xmlns:svg="http://www.w3.org/2000/svg"
   xmlns="http://www.w3.org/2000/svg"
   xmlns:sodipodi="http://sodipodi.sourceforge.net/DTD/sodipodi-0.dtd"
   xmlns:inkscape="http://www.inkscape.org/namespaces/inkscape"
   version="1.2"
   width="253.089"
   height="28.288"
   id="svg2"
   inkscape:version="0.48.5 r10040"
   sodipodi:docname="logo.svg">
  <sodipodi:namedview
     pagecolor="#ffffff"
     bordercolor="#666666"
     borderopacity="1"
     objecttolerance="10"
     gridtolerance="10"
     guidetolerance="10"
     inkscape:pageopacity="0"
     inkscape:pageshadow="2"
     inkscape:window-width="1280"
     inkscape:window-height="759"
     id="namedview25"
     showgrid="false"
     inkscape:zoom="4.0966703"
     inkscape:cx="141.82249"
     inkscape:cy="11.8635"
     inkscape:window-x="0"
     inkscape:window-y="19"
     inkscape:window-maximized="1"
     inkscape:current-layer="flowRoot3031" />
  <defs
     id="defs4" />
  <metadata
     id="metadata7">
    <rdf:RDF>
      <cc:Work
         rdf:about="">
        <dc:format>image/svg+xml</dc:format>
        <dc:type
           rdf:resource="http://purl.org/dc/dcmitype/StillImage" />
        <dc:title />
      </cc:Work>
    </rdf:RDF>
  </metadata>
  <g
     id="layer1"
     style="fill:#ffffff" />
  <g
     transform="translate(3.4480833,4.9672609)"
     style="font-size:32px;font-style:normal;font-variant:normal;font-weight:normal;font-stretch:normal;line-height:125%;letter-spacing:0px;word-spacing:0px;fill:#ffffff;fill-opacity:1;stroke:none;font-family:Timmana;-inkscape-font-specification:Timmana"
     id="flowRoot3031">
    <path
       d="m 5.0745833,14.072739 c -0.5137865,3.626667 -1.4053412,6.119998 -2.6746666,7.48 -0.6044505,0.695107 -1.314672,1.163551 -2.1306667,1.405334 -0.81600367,0.241772 -1.5262252,0.362661 -2.1306667,0.362666 -2.3e-6,-5e-6 -0.3626686,-5e-6 -1.088,0 -0.1511122,-5e-6 -0.3173343,-0.01512 -0.4986666,-0.04533 0.120888,-0.544005 0.2266656,-1.088004 0.3173333,-1.632 0.1208877,-0.544003 0.2417764,-1.072891 0.3626667,-1.586667 0.6648867,-0.06045 1.2391084,-0.408001 1.7226666,-1.042666 0.45332974,-0.302223 0.80088495,-0.740445 1.0426667,-1.314667 0.24177332,-0.604444 0.43821757,-1.495998 0.58933333,-2.674667 l 2.49333337,-17.4986664 4.352,0 -2.3573334,16.5466664"
       style="font-size:34px;font-family:Timmana;-inkscape-font-specification:Timmana;fill:#ffffff"
       id="path2987" />
    <path
       d="m 18.886375,5.0967392 c -0.544011,-0.060431 -1.254232,-0.090654 -2.130667,-0.090667 -0.876452,1.31e-5 -1.616896,0.3626794 -2.221333,1.088 -0.574228,0.7253446 -0.997339,2.0400099 -1.269333,3.9440004 -0.241783,1.873784 -0.226672,3.158227 0.04533,3.853333 0.302216,0.695115 0.876438,1.04267 1.722667,1.042667 0.51377,3e-6 1.012436,-0.151108 1.496,-0.453334 0.513768,-0.33244 0.921768,-0.679995 1.224,-1.042666 L 18.886375,5.0967392 M 17.753042,16.203406 c -1.722675,1.541334 -3.400007,2.311999 -5.032,2.312 -2.357336,-10e-7 -3.7022238,-1.465777 -4.034667,-4.397333 -0.1208897,-1.027551 -0.075556,-2.296883 0.136,-3.808 0.2115543,-1.5413244 0.5742206,-2.8559898 1.088,-3.9440004 0.513775,-1.0879872 1.118219,-1.9795419 1.813333,-2.6746667 1.299551,-1.2693177 2.916438,-1.9039837 4.850667,-1.904 2.296878,1.63e-5 4.608875,0.2266828 6.936,0.68 l -2.221333,15.6400001 -3.536,0 0,-1.904"
       style="font-size:34px;font-family:Timmana;-inkscape-font-specification:Timmana;fill:#ffffff"
       id="path2989" />
    <path
       d="M 35.996167,5.4594059 C 34.998822,5.1269744 34.152601,4.9607524 33.4575,4.9607392 c -1.057786,1.32e-5 -1.888897,0.4231239 -2.493333,1.2693334 -0.604451,0.816011 -1.042673,2.1457875 -1.314667,3.9893334 -0.241783,1.813339 -0.166228,3.097782 0.226667,3.853333 0.423104,0.725337 1.012437,1.088003 1.768,1.088 0.785769,3e-6 1.465768,-0.105775 2.04,-0.317333 0.574212,-0.241774 0.9671,-0.392885 1.178666,-0.453333 l 0.589334,2.629333 c -1.662232,0.997333 -3.248897,1.495999 -4.76,1.496 -4.352003,-10e-7 -6.150223,-2.735109 -5.394667,-8.205333 0.755553,-5.7422091 3.430217,-8.6133174 8.024,-8.6133338 1.299545,1.64e-5 2.508433,0.2115718 3.626667,0.6346667 l -0.952,3.128"
       style="font-size:34px;font-family:Timmana;-inkscape-font-specification:Timmana;fill:#ffffff"
       id="path2991" />
    <path
       d="m 41.229156,-4.3779274 4.261334,-0.5893334 -1.949334,13.9626667 5.032,-6.936 4.76,0 -6.210666,7.1626667 4.442666,8.8853334 -4.986666,0 -3.264,-7.661333 -1.042667,7.661333 -4.216,0 3.173333,-22.4853334"
       style="font-size:34px;font-family:Timmana;-inkscape-font-specification:Timmana;fill:#ffffff"
       id="path2993" />
    <path
       d="m 55.259469,14.435406 c 0.09066,0.03023 0.256886,0.105781 0.498666,0.226667 0.241776,0.120892 0.528886,0.241781 0.861334,0.362666 0.846218,0.272003 1.556439,0.408003 2.130666,0.408 0.574217,3e-6 1.02755,-0.09066 1.36,-0.272 0.36266,-0.211552 0.574215,-0.559107 0.634667,-1.042666 0.09066,-0.513774 0.0151,-0.936884 -0.226667,-1.269334 -0.241784,-0.362661 -0.559117,-0.710216 -0.952,-1.042666 -0.362672,-0.332438 -0.770672,-0.664882 -1.224,-0.997334 -0.453337,-0.362659 -0.861337,-0.770658 -1.224,-1.2239998 C 56.27191,8.5874154 55.939466,7.423861 56.120802,6.0940726 c 0.18133,-1.3297645 0.785774,-2.3875412 1.813333,-3.1733334 1.057773,-0.815984 2.463104,-1.2239836 4.216,-1.224 1.35999,1.64e-5 2.674656,0.2115718 3.944,0.6346667 l -0.634666,3.0826667 c -0.24179,-0.030209 -0.664901,-0.1359872 -1.269334,-0.3173334 -0.574232,-0.1813201 -1.193787,-0.2719867 -1.858666,-0.272 -1.269341,1.33e-5 -1.979563,0.423124 -2.130667,1.2693334 -0.06045,0.3929005 0.03021,0.7555668 0.272,1.088 0.271993,0.3022328 0.604437,0.6195658 0.997333,0.952 0.392881,0.3022319 0.831103,0.634676 1.314667,0.9973333 0.483546,0.3324531 0.921768,0.7102305 1.314667,1.1333331 0.906655,0.967118 1.25421,2.115562 1.042666,3.445334 -0.1209,1.32978 -0.695122,2.463113 -1.722666,3.4 -1.088009,0.936889 -2.568897,1.405332 -4.442667,1.405333 -1.239115,-10e-7 -2.176003,-0.120889 -2.810667,-0.362667 -1.088001,-0.392888 -1.768001,-0.69511 -2.04,-0.906666 l 1.133334,-2.810667"
       style="font-size:34px;font-family:Timmana;-inkscape-font-specification:Timmana;fill:#ffffff"
       id="path2995" />
    <path
       d="m 73.6455,15.432739 c 0.906659,3e-6 1.61688,-0.423108 2.130667,-1.269333 0.54399,-0.846218 0.936878,-2.206216 1.178666,-4.08 0.27199,-1.9039902 0.256878,-3.2639888 -0.04533,-4.0800001 -0.302232,-0.8159871 -0.891565,-1.2239867 -1.768,-1.224 -0.876452,1.33e-5 -1.571563,0.4080129 -2.085333,1.224 -0.513784,0.8160113 -0.906673,2.1760099 -1.178667,4.0800001 -0.241783,1.904006 -0.226672,3.279116 0.04533,4.125333 0.271995,0.816003 0.846216,1.224003 1.722667,1.224 m 7.752,-9.2026664 c 0.181318,1.0577886 0.151096,2.3422317 -0.09067,3.8533334 -0.21157,1.511118 -0.559125,2.795561 -1.042666,3.853333 -0.453347,1.057781 -1.027569,1.934225 -1.722667,2.629334 -1.299566,1.299555 -3.067565,1.949332 -5.304,1.949333 -3.324448,-10e-7 -5.243557,-1.526221 -5.757333,-4.578667 -0.181335,-1.057772 -0.151112,-2.357327 0.09067,-3.898666 0.332443,-2.8408784 1.25422,-4.971543 2.765334,-6.3920004 1.359994,-1.2995398 3.09777,-1.949317 5.213333,-1.9493334 3.384876,1.64e-5 5.334208,1.511126 5.848,4.5333334"
       style="font-size:34px;font-family:Timmana;-inkscape-font-specification:Timmana;fill:#ffffff"
       id="path2997" />
    <path
       d="m 84.881083,2.0594059 3.717334,0 -0.181334,2.04 0.09067,0 c 0.151104,-0.090653 0.36266,-0.2719857 0.634667,-0.544 0.302214,-0.2719852 0.679992,-0.5439849 1.133333,-0.816 1.118213,-0.6950951 2.221323,-1.0426503 3.309333,-1.0426667 1.511098,1.64e-5 2.508431,0.4533493 2.992,1.36 0.483541,0.9066808 0.589318,2.3120128 0.317334,4.216 l -1.541334,10.8346668 -4.125333,0 1.314667,-9.7920001 c 0.1511,-1.1484335 0.135989,-1.9190994 -0.04533,-2.312 C 92.31574,5.5803073 91.90774,5.368752 91.273083,5.3687392 90.729074,5.368752 90.230408,5.534974 89.777083,5.8674059 88.930854,6.5323064 88.46241,6.955417 88.37175,7.1367392 l -1.541333,10.9706668 -4.216,0 2.266666,-16.0480001"
       style="font-size:34px;font-family:Timmana;-inkscape-font-specification:Timmana;fill:#ffffff"
       id="path2999" />
    <path
       d="m 119.21028,-2.8365941 c 1.45066,2.09e-5 2.52354,0.1360208 3.21867,0.408 0.69509,0.2720203 1.17865,0.4835756 1.45066,0.6346667 0.30221,0.1511308 0.52888,0.2569085 0.68,0.3173333 l -1.496,3.128 -0.58933,-0.3173333 c -1.23912,-0.60442711 -2.32712,-0.90664903 -3.264,-0.90666671 -0.78579,1.768e-5 -1.4809,0.27201741 -2.08533,0.81600001 -0.54401,0.5137941 -0.81601,0.9973492 -0.816,1.4506667 -0.0907,0.6346814 0.0151,1.1786809 0.31733,1.632 0.33244,0.4533466 0.75555,0.8764573 1.26933,1.2693333 0.51377,0.392901 1.07288,0.7857895 1.67734,1.1786667 0.63465,0.3928998 1.19376,0.8462327 1.67733,1.36 1.20888,1.1786754 1.67732,2.6595624 1.40533,4.4426664 -0.24179,1.783115 -1.01245,3.218669 -2.312,4.306667 -1.29956,1.088 -3.08267,1.631999 -5.34933,1.632 -1.84356,-10e-7 -3.44533,-0.377778 -4.80533,-1.133333 -0.272,-0.181333 -0.49867,-0.317333 -0.68,-0.408 l 1.45066,-3.128 c 0.15111,0.06045 0.34756,0.166226 0.58934,0.317333 0.27199,0.151115 0.57422,0.287115 0.90666,0.408 0.84622,0.36267 1.632,0.544003 2.35734,0.544 1.32977,3e-6 2.3271,-0.45333 2.992,-1.36 0.21154,-0.271995 0.34754,-0.649773 0.408,-1.133333 0.0907,-0.513772 -0.0302,-0.967105 -0.36267,-1.36 -0.33245,-0.423104 -0.75556,-0.815993 -1.26933,-1.178667 -0.51379,-0.3928806 -1.0729,-0.7857691 -1.67734,-1.1786668 -0.60445,-0.4231015 -1.16356,-0.8915454 -1.67733,-1.4053333 -1.17867,-1.1786549 -1.64711,-2.6595423 -1.40533,-4.4426667 0.24177,-1.8133164 1.01244,-3.24887056 2.312,-4.3066666 1.29955,-1.0577574 2.99199,-1.5866458 5.07733,-1.5866667"
       style="font-size:34px;font-family:Timmana;-inkscape-font-specification:Timmana;fill:#ffffff"
       id="path3001" />
    <path
       d="m 129.03929,-4.3779274 4.30667,-0.5893334 -1.26934,9.0666667 0.0453,0 c 0.12088,-0.090653 0.31732,-0.2719857 0.58933,-0.544 0.27199,-0.2719852 0.60444,-0.5439849 0.99733,-0.816 0.99733,-0.6950951 2.05511,-1.0426503 3.17334,-1.0426667 1.5111,1.64e-5 2.50843,0.4533493 2.992,1.36 0.48354,0.9066808 0.58932,2.3120128 0.31733,4.216 l -1.45067,10.8346668 -4.216,0 1.31467,-9.7920001 c 0.1511,-1.1484335 0.1511,-1.9190994 0,-2.312 -0.15112,-0.4230986 -0.55912,-0.6346539 -1.224,-0.6346667 -0.57423,1.28e-5 -1.08801,0.1662348 -1.54133,0.4986667 -0.72534,0.5742339 -1.19379,0.9973446 -1.40534,1.2693333 l -1.54133,10.9706668 -4.216,0 3.128,-22.4853334"
       style="font-size:34px;font-family:Timmana;-inkscape-font-specification:Timmana;fill:#ffffff"
       id="path3003" />
    <path
       d="m 148.08691,15.432739 c 0.90665,3e-6 1.61688,-0.423108 2.13066,-1.269333 0.54399,-0.846218 0.93688,-2.206216 1.17867,-4.08 0.27199,-1.9039902 0.25688,-3.2639888 -0.0453,-4.0800001 -0.30224,-0.8159871 -0.89157,-1.2239867 -1.768,-1.224 -0.87646,1.33e-5 -1.57157,0.4080129 -2.08534,1.224 -0.51378,0.8160113 -0.90667,2.1760099 -1.17866,4.0800001 -0.24179,1.904006 -0.22668,3.279116 0.0453,4.125333 0.27199,0.816003 0.84622,1.224003 1.72267,1.224 m 7.752,-9.2026664 c 0.18131,1.0577886 0.15109,2.3422317 -0.0907,3.8533334 -0.21157,1.511118 -0.55913,2.795561 -1.04267,3.853333 -0.45334,1.057781 -1.02757,1.934225 -1.72266,2.629334 -1.29957,1.299555 -3.06757,1.949332 -5.304,1.949333 -3.32445,-10e-7 -5.24356,-1.526221 -5.75734,-4.578667 -0.18133,-1.057772 -0.15111,-2.357327 0.0907,-3.898666 0.33244,-2.8408784 1.25422,-4.971543 2.76533,-6.3920004 1.36,-1.2995398 3.09777,-1.949317 5.21334,-1.9493334 3.38487,1.64e-5 5.3342,1.511126 5.848,4.5333334"
       style="font-size:34px;font-family:Timmana;-inkscape-font-specification:Timmana;fill:#ffffff"
       id="path3005" />
    <path
       d="m 178.27182,2.0594059 -6.48266,16.0480001 -3.98934,0 -1.04266,-10.4266668 -4.03467,10.4266668 -3.85333,0 -1.81334,-16.0480001 4.17067,0 0.816,10.8346671 3.98933,-10.8346671 3.49067,0 0.99733,10.8346671 3.76267,-10.8346671 3.98933,0"
       style="font-size:34px;font-family:Timmana;-inkscape-font-specification:Timmana;fill:#ffffff"
       id="path3007" />
    <path
       d="m 185.37977,6.3207392 c -0.18134,0.1511228 -0.31734,0.2871226 -0.408,0.408 l -0.99733,7.1173338 c 0.30221,0.241781 0.58932,0.468448 0.86133,0.68 0.27199,0.181336 0.58933,0.272003 0.952,0.272 1.05777,3e-6 1.85866,-0.347552 2.40267,-1.042667 0.57421,-0.725328 0.99732,-1.903994 1.26933,-3.536 0.24177,-1.8435459 0.19643,-3.1279891 -0.136,-3.8533334 -0.30223,-0.7253209 -0.83112,-1.0879872 -1.58667,-1.088 -0.75556,1.28e-5 -1.54134,0.347568 -2.35733,1.0426666 m -3.08267,-10.6986666 4.30667,-0.5893334 -1.224,8.84 c 0.24177,-0.1813189 0.51377,-0.3928742 0.816,-0.6346666 0.33244,-0.2719849 0.6951,-0.5137624 1.088,-0.7253334 0.87644,-0.5439838 1.70755,-0.8159836 2.49333,-0.816 0.78577,1.64e-5 1.46577,0.1662385 2.04,0.4986667 0.57421,0.3022378 1.04266,0.7857929 1.40534,1.4506667 0.81598,1.511124 1.02754,3.5813442 0.63466,6.2106666 -0.42312,2.7804498 -1.28445,4.8960038 -2.584,6.3466668 -1.2089,1.390223 -2.62934,2.085333 -4.26133,2.085333 -1.36001,0 -2.41778,-0.453333 -3.17333,-1.36 -0.18134,-0.241776 -0.34756,-0.468443 -0.49867,-0.68 l -0.63467,1.858667 -3.536,0 3.128,-22.4853334"
       style="font-size:34px;font-family:Timmana;-inkscape-font-specification:Timmana;fill:#ffffff"
       id="path3009" />
    <path
       d="m 201.61034,15.432739 c 0.90666,3e-6 1.61688,-0.423108 2.13067,-1.269333 0.54399,-0.846218 0.93688,-2.206216 1.17867,-4.08 0.27199,-1.9039902 0.25688,-3.2639888 -0.0453,-4.0800001 -0.30223,-0.8159871 -0.89156,-1.2239867 -1.768,-1.224 -0.87645,1.33e-5 -1.57156,0.4080129 -2.08533,1.224 -0.51378,0.8160113 -0.90667,2.1760099 -1.17867,4.0800001 -0.24178,1.904006 -0.22667,3.279116 0.0453,4.125333 0.27199,0.816003 0.84621,1.224003 1.72266,1.224 m 7.752,-9.2026664 c 0.18132,1.0577886 0.1511,2.3422317 -0.0907,3.8533334 -0.21157,1.511118 -0.55913,2.795561 -1.04267,3.853333 -0.45335,1.057781 -1.02757,1.934225 -1.72267,2.629334 -1.29956,1.299555 -3.06756,1.949332 -5.304,1.949333 -3.32444,-10e-7 -5.24355,-1.526221 -5.75733,-4.578667 -0.18133,-1.057772 -0.15111,-2.357327 0.0907,-3.898666 0.33244,-2.8408784 1.25422,-4.971543 2.76533,-6.3920004 1.36,-1.2995398 3.09777,-1.949317 5.21333,-1.9493334 3.38488,1.64e-5 5.33421,1.511126 5.848,4.5333334"
       style="font-size:34px;font-family:Timmana;-inkscape-font-specification:Timmana;fill:#ffffff"
       id="path3011" />
    <path
       d="m 220.96059,5.0967392 c -0.54401,-0.060431 -1.25423,-0.090654 -2.13066,-0.090667 -0.87646,1.31e-5 -1.6169,0.3626794 -2.22134,1.088 -0.57422,0.7253446 -0.99734,2.0400099 -1.26933,3.9440004 -0.24178,1.873784 -0.22667,3.158227 0.0453,3.853333 0.30222,0.695115 0.87644,1.04267 1.72267,1.042667 0.51377,3e-6 1.01244,-0.151108 1.496,-0.453334 0.51377,-0.33244 0.92177,-0.679995 1.224,-1.042666 l 1.13333,-8.3413338 m -1.13333,11.1066668 c -1.72267,1.541334 -3.40001,2.311999 -5.032,2.312 -2.35734,-10e-7 -3.70222,-1.465777 -4.03467,-4.397333 -0.12089,-1.027551 -0.0756,-2.296883 0.136,-3.808 0.21156,-1.5413244 0.57422,-2.8559898 1.088,-3.9440004 0.51378,-1.0879872 1.11822,-1.9795419 1.81334,-2.6746667 1.29955,-1.2693177 2.91643,-1.9039837 4.85066,-1.904 2.29688,1.63e-5 4.60888,0.2266828 6.936,0.68 l -2.22133,15.6400001 -3.536,0 0,-1.904"
       style="font-size:34px;font-family:Timmana;-inkscape-font-specification:Timmana;fill:#ffffff"
       id="path3013" />
    <path
       d="m 236.52905,2.0594059 -0.36266,3.0826667 -3.49067,0 -1.088,7.7066664 c -0.1209,0.695116 -0.1209,1.208893 0,1.541334 0.12088,0.332447 0.4231,0.498669 0.90667,0.498666 0.51377,3e-6 0.95199,-0.06044 1.31466,-0.181333 0.36266,-0.151108 0.60444,-0.241774 0.72534,-0.272 l 0,2.992 c -0.1209,0.03022 -0.30224,0.105778 -0.544,0.226667 -0.24179,0.120889 -0.51379,0.241778 -0.816,0.362666 -0.75557,0.332444 -1.60179,0.498666 -2.53867,0.498667 -1.45067,-10e-7 -2.43289,-0.377778 -2.94667,-1.133333 -0.51378,-0.785777 -0.64978,-2.100442 -0.408,-3.944 l 1.224,-8.2960004 -1.72266,0 0.408,-3.0826667 1.72266,0 0.544,-3.8533333 4.30667,-0.68 -0.68,4.5333333 3.44533,0"
       style="font-size:34px;font-family:Timmana;-inkscape-font-specification:Timmana;fill:#ffffff"
       id="path3015" />
    <path
       d="m 238.80634,14.435406 c 0.0907,0.03023 0.25689,0.105781 0.49867,0.226667 0.24178,0.120892 0.52889,0.241781 0.86133,0.362666 0.84622,0.272003 1.55644,0.408003 2.13067,0.408 0.57422,3e-6 1.02755,-0.09066 1.36,-0.272 0.36266,-0.211552 0.57422,-0.559107 0.63467,-1.042666 0.0907,-0.513774 0.0151,-0.936884 -0.22667,-1.269334 -0.24178,-0.362661 -0.55912,-0.710216 -0.952,-1.042666 -0.36267,-0.332438 -0.77067,-0.664882 -1.224,-0.997334 -0.45334,-0.362659 -0.86134,-0.770658 -1.224,-1.2239998 -0.84622,-0.9973238 -1.17867,-2.1608782 -0.99733,-3.4906666 0.18133,-1.3297645 0.78577,-2.3875412 1.81333,-3.1733334 1.05777,-0.815984 2.4631,-1.2239836 4.216,-1.224 1.35999,1.64e-5 2.67466,0.2115718 3.944,0.6346667 l -0.63467,3.0826667 c -0.24179,-0.030209 -0.6649,-0.1359872 -1.26933,-0.3173334 -0.57423,-0.1813201 -1.19379,-0.2719867 -1.85867,-0.272 -1.26934,1.33e-5 -1.97956,0.423124 -2.13066,1.2693334 -0.0605,0.3929005 0.0302,0.7555668 0.272,1.088 0.27199,0.3022328 0.60443,0.6195658 0.99733,0.952 0.39288,0.3022319 0.8311,0.634676 1.31467,0.9973333 0.48354,0.3324531 0.92176,0.7102305 1.31466,1.1333331 0.90666,0.967118 1.25421,2.115562 1.04267,3.445334 -0.1209,1.32978 -0.69512,2.463113 -1.72267,3.4 -1.08801,0.936889 -2.56889,1.405332 -4.44266,1.405333 -1.23912,-10e-7 -2.17601,-0.120889 -2.81067,-0.362667 -1.088,-0.392888 -1.768,-0.69511 -2.04,-0.906666 l 1.13333,-2.810667"
       style="font-size:34px;font-family:Timmana;-inkscape-font-specification:Timmana;fill:#ffffff"
       id="path3017" />
  </g>
</svg>
